<svg width="126" height="50" viewBox="0 0 126 50" fill="none" xmlns="http://www.w3.org/2000/svg">
<path d="M17.1211 38.875H15.6165C13.7117 38.875 12.2442 38.3529 11.1991 37.3088C10.1541 36.2647 9.63525 34.8088 9.63525 32.9485V25.2941C9.63525 23.4044 10.1541 21.9485 11.1991 20.9118C12.2442 19.875 13.7117 19.3603 15.6165 19.3603H24.2587C24.7182 19.3603 24.9554 19.5809 24.9554 20.0073V38.2206C24.9554 38.6544 24.7256 38.8676 24.2587 38.8676H21.8276C21.3903 38.8676 21.1754 38.6544 21.1754 38.2206V36.8456H21.0197C20.4045 38.1985 19.1001 38.875 17.1211 38.875V38.875ZM21.168 32.3676V22.9926C21.168 22.7353 21.0271 22.6103 20.7455 22.6103H16.1576C14.3047 22.6103 13.3782 23.5515 13.3782 25.4412V32.7868C13.3782 34.6765 14.3047 35.6176 16.1576 35.6176H18.0105C20.1155 35.6176 21.1754 34.5368 21.1754 32.3676H21.168Z" fill="white"/>
<path d="M58.5824 38.875H55.1878C53.283 38.875 51.8155 38.3529 50.7704 37.3088C49.7254 36.2647 49.2065 34.8088 49.2065 32.9485V25.2941C49.2065 23.4044 49.7254 21.9485 50.7704 20.9118C51.8155 19.875 53.283 19.3603 55.1878 19.3603H58.5824C60.4576 19.3603 61.9325 19.875 62.9998 20.9118C64.0671 21.9485 64.6008 23.4044 64.6008 25.2941V32.9485C64.6008 34.8088 64.0671 36.2647 62.9998 37.3088C61.9325 38.3529 60.4576 38.875 58.5824 38.875ZM55.7289 35.625H58.0784C59.9314 35.625 60.8578 34.6912 60.8578 32.8309V25.4044C60.8578 23.5441 59.9314 22.6103 58.0784 22.6103H55.7289C54.7505 22.6103 54.0464 22.8309 53.6091 23.2794C53.1718 23.7279 52.9569 24.4338 52.9569 25.4044V32.8309C52.9569 33.8015 53.1718 34.5074 53.6091 34.9559C54.0464 35.4044 54.7505 35.625 55.7289 35.625V35.625Z" fill="white"/>
<path d="M72.1165 38.875H69.6854C69.2481 38.875 69.0332 38.6618 69.0332 38.2279V20.0073C69.0332 19.5735 69.2481 19.3603 69.6854 19.3603H72.1165C72.5538 19.3603 72.7687 19.5809 72.7687 20.0073V21.4632H72.9244C73.1838 20.8235 73.673 20.3162 74.4067 19.9338C75.1405 19.5515 75.9558 19.3603 76.8526 19.3603H78.2831C78.7204 19.3603 78.9353 19.5809 78.9353 20.0073V22C78.9353 22.4853 78.713 22.6912 78.2831 22.6103H75.9706C73.836 22.6103 72.7687 23.7721 72.7687 26.0956V38.2279C72.7687 38.6618 72.5464 38.875 72.1165 38.875V38.875Z" fill="white"/>
<path d="M89.0523 38.875H87.5477C85.6429 38.875 84.1753 38.3529 83.1303 37.3088C82.0852 36.2647 81.5664 34.8088 81.5664 32.9485V25.2941C81.5664 23.4044 82.0852 21.9485 83.1303 20.9118C84.1753 19.875 85.6429 19.3603 87.5477 19.3603H96.1898C96.6493 19.3603 96.8865 19.5809 96.8865 20.0073V38.2206C96.8865 38.6544 96.6568 38.8676 96.1898 38.8676H93.7588C93.3215 38.8676 93.1065 38.6544 93.1065 38.2206V36.8456H92.9509C92.3357 38.1985 91.0312 38.875 89.0523 38.875V38.875ZM93.0991 32.3676V22.9926C93.0991 22.7353 92.9583 22.6103 92.6766 22.6103H88.0888C86.2358 22.6103 85.3093 23.5515 85.3093 25.4412V32.7868C85.3093 34.6765 86.2358 35.6176 88.0888 35.6176H89.9417C92.0466 35.6176 93.1065 34.5368 93.1065 32.3676H93.0991Z" fill="white"/>
<path d="M44.7744 24.4853V20.3823C44.7744 19.8162 44.3075 19.3529 43.7368 19.3529H35.3985C33.4937 19.3529 32.0262 19.8676 30.9811 20.9044C29.9361 21.9412 29.4172 23.3971 29.4172 25.2868V32.9412C29.4172 34.8015 29.9361 36.2573 30.9811 37.3015C32.0262 38.3456 33.4937 38.8676 35.3985 38.8676H38.7931C40.6683 38.8676 42.1432 38.3456 43.2105 37.3015C44.2778 36.2573 44.8115 34.8015 44.8115 32.9412V25.2868C44.8115 25.0073 44.7966 24.7426 44.7744 24.4853V24.4853ZM40.9944 33.3676C40.9944 34.6103 39.979 35.6176 38.7264 35.6176H35.4356C34.183 35.6176 33.1676 34.6103 33.1676 33.3676V24.8603C33.1676 23.6176 34.183 22.6103 35.4356 22.6103H40.4237C40.7424 22.6103 40.9944 22.8603 40.9944 23.1765V33.3676Z" fill="white"/>
<path d="M38.7931 42.125H35.3985C33.4937 42.125 32.0262 41.6029 30.9811 40.5588C29.9361 39.5147 29.4172 38.0588 29.4172 36.1985V39.4485C29.4172 41.3088 29.9361 42.7647 30.9811 43.8088C32.0262 44.8529 33.4937 45.375 35.3985 45.375H38.7931C40.6683 45.375 42.1432 44.8529 43.2105 43.8088C44.2778 42.7647 44.8115 41.3088 44.8115 39.4485V36.1985C44.8115 38.0588 44.2778 39.5147 43.2105 40.5588C42.1432 41.6029 40.6683 42.125 38.7931 42.125V42.125Z" fill="white"/>
<path d="M105.38 19.4926C105.38 22.5147 102.912 24.9632 99.866 24.9632V19.4926H105.38Z" fill="#E9B66A"/>
<path d="M110.813 11.9779C110.813 15 108.345 17.4485 105.299 17.4485H99.866C96.2342 17.4485 93.2917 14.5294 93.2917 10.9265C93.2917 7.32352 96.2342 4.4044 99.866 4.4044L116.335 4.45587C116.335 7.47793 113.867 9.92646 110.821 9.92646H99.866C99.3027 9.92646 98.8432 10.3823 98.8432 10.9412C98.8432 11.5 99.3027 11.9559 99.866 11.9559H110.821L110.813 11.9779Z" fill="#E9B66A"/>
</svg>
